<svg width="9" height="25" viewBox="0 0 9 25" fill="none" xmlns="http://www.w3.org/2000/svg">
<path d="M6.56774 5.96702L6.54774 5.94702L1.41674 0.238024C1.26078 0.0839909 1.04993 -0.00164302 0.830739 2.38871e-05C0.610413 -0.000919178 0.398932 0.0866277 0.243739 0.243024C0.087716 0.398728 3.51374e-05 0.610099 3.51374e-05 0.830524C3.51374e-05 1.05095 0.087715 1.26232 0.243738 1.41802L4.77774 6.53902L4.70474 6.62202L0.247738 11.7C0.0898217 11.8552 0.000458569 12.0671 -0.0004808 12.2885C-0.00142017 12.5099 0.0861424 12.7225 0.242737 12.879C0.569929 13.194 1.08754 13.194 1.41474 12.879L6.54274 7.13202C6.8665 6.81511 6.8776 6.29754 6.56774 5.96702Z" fill="#27354C"/>
<path opacity="0.3" d="M1.75624 18.9514L1.77624 18.9714L6.90724 24.6804C7.06319 24.8345 7.27404 24.9201 7.49324 24.9184C7.71356 24.9194 7.92504 24.8318 8.08024 24.6754C8.23626 24.5197 8.32394 24.3084 8.32394 24.0879C8.32394 23.8675 8.23626 23.6561 8.08024 23.5004L3.54624 18.3794L3.61924 18.2964L8.07624 13.2184C8.23415 13.0632 8.32352 12.8514 8.32446 12.63C8.32539 12.4086 8.23783 12.196 8.08124 12.0394C7.75405 11.7245 7.23643 11.7245 6.90924 12.0394L1.78124 17.7864C1.45748 18.1034 1.44637 18.6209 1.75624 18.9514Z" fill="#27354C"/>
</svg>
